<svg xmlns="http://www.w3.org/2000/svg" version="1.1" xmlns:xlink="http://www.w3.org/1999/xlink" xmlns:svgjs="http://svgjs.dev/svgjs" viewBox="0 0 1422 800"><defs><filter id="llleaves-blur-2" x="-100%" y="-100%" width="400%" height="400%"><feGaussianBlur in="SourceGraphic" stdDeviation="2"></feGaussianBlur></filter><filter id="llleaves-blur-3" x="-100%" y="-100%" width="400%" height="400%"><feGaussianBlur in="SourceGraphic" stdDeviation="4"></feGaussianBlur></filter><filter id="llleaves-blur-4" x="-100%" y="-100%" width="400%" height="400%"><feGaussianBlur in="SourceGraphic" stdDeviation="12"></feGaussianBlur></filter></defs><g fill="#4c5dab"><path d="M366 429H416C444 429 466 451 466 479H416C388 479 366 457 366 429Z " transform="matrix(0.04545935932584905,0.21386947064198947,-0.21386947064198947,0.04545935932584905,494.18564619191,344.3917510789969)" filter="url(#llleaves-blur-3)" opacity="0.33"></path><path d="M716 641H766C794 641 816 663 816 691H766C738 691 716 669 716 641Z " transform="matrix(0.06804853664528114,0.19762730033514725,-0.19762730033514725,0.06804853664528114,845.4946029529227,469.29716253751997)" filter="url(#llleaves-blur-3)" opacity="0.32"></path><path d="M949 413H999C1027 413 1049 435 1049 463H999C971 463 949 441 949 413Z " transform="matrix(0.012151917030286388,0.23187238987282627,-0.23187238987282627,0.012151917030286388,1088.4203416510418,201.03694285778113)" filter="url(#llleaves-blur-3)" opacity="0.35"></path><path d="M188 561H238C266 561 288 583 288 611H238C210 611 188 589 188 561Z " transform="matrix(-0.09641341298482184,0.25116552785656676,-0.25116552785656676,-0.09641341298482184,408.1293916143357,582.7208643792427)" filter="url(#llleaves-blur-3)" opacity="0.41"></path><path d="M958 556H1008C1036 556 1058 578 1058 606H1008C980 606 958 584 958 556Z " transform="matrix(0.008181630189692228,0.23429123437917476,-0.23429123437917476,0.008181630189692228,1135.8761239430908,340.0809086055807)" filter="url(#llleaves-blur-3)" opacity="0.36"></path><path d="M116 425H166C194 425 216 447 216 475H166C138 475 116 453 116 425Z " transform="matrix(-0.21213231219852882,0.21966943981606177,-0.21966943981606177,-0.21213231219852882,300.0652117421836,508.99441347987164)" filter="url(#llleaves-blur-2)" opacity="0.47"></path><path d="M768 349H818C846 349 868 371 868 399H818C790 399 768 377 768 349Z " transform="matrix(0.05553462392251046,0.2072580380580391,-0.2072580380580391,0.05553462392251046,850.087183865093,183.6929755215051)" filter="url(#llleaves-blur-3)" opacity="0.33"></path><path d="M-13 527H37C65 527 87 549 87 577H37C9 577 -13 555 -13 527Z " transform="matrix(-0.3562043907641711,0.05641723307232571,-0.05641723307232571,-0.3562043907641711,81.32187511419812,746.5373860781464)" filter="url(#llleaves-blur-2)" opacity="0.55"></path><path d="M70 677H120C148 677 170 699 170 727H120C92 727 70 705 70 677Z " transform="matrix(-0.2544928917619303,0.19177414930957454,-0.19177414930957454,-0.2544928917619303,285.164599826753,857.6411120997261)" filter="url(#llleaves-blur-2)" opacity="0.49"></path><path d="M-6 296H44C72 296 94 318 94 346H44C16 346 -6 324 -6 296Z " transform="matrix(-0.3562043907641711,0.05641723307232571,-0.05641723307232571,-0.3562043907641711,77.78292500984007,432.8592511801166)" filter="url(#llleaves-blur-2)" opacity="0.55"></path><path d="M1327 472H1377C1405 472 1427 494 1427 522H1377C1349 522 1327 500 1327 472Z " transform="matrix(0.03127403036363773,0.2225262887463519,-0.2225262887463519,0.03127403036363773,1444.5312256962077,175.03810730554545)" filter="url(#llleaves-blur-3)" opacity="0.34"></path><path d="M1161 21H1211C1239 21 1261 43 1261 71H1211C1183 71 1161 49 1161 21Z " transform="matrix(-0.03472512943378481,0.2470821345790253,-0.2470821345790253,-0.03472512943378481,1264.4179099349485,-251.61910902124555)" filter="url(#llleaves-blur-3)" opacity="0.38"></path><path d="M1251 538H1301C1329 538 1351 560 1351 588H1301C1273 588 1251 566 1251 538Z " transform="matrix(0.012227911253019004,0.23332244602426497,-0.23332244602426497,0.012227911253019004,1416.4520245714834,252.56318368698157)" filter="url(#llleaves-blur-3)" opacity="0.36"></path><path d="M441 470H491C519 470 541 492 541 520H491C463 520 441 498 441 470Z " transform="matrix(0.06475935798190807,0.19930880993895728,-0.19930880993895728,0.06475935798190807,557.861016150667,365.08349211892744)" filter="url(#llleaves-blur-3)" opacity="0.32"></path><path d="M1129 637H1179C1207 637 1229 659 1229 687H1179C1151 687 1129 665 1129 637Z " transform="matrix(-0.0041732911811911775,0.23908769164442975,-0.23908769164442975,-0.0041732911811911775,1342.1963621712368,382.8783303131659)" filter="url(#llleaves-blur-3)" opacity="0.37"></path><path d="M846 173H896C924 173 946 195 946 223H896C868 223 846 201 846 173Z " transform="matrix(0.03501396175451519,0.22106945406234424,-0.22106945406234424,0.03501396175451519,908.3992421722985,-7.01099526725443)" filter="url(#llleaves-blur-3)" opacity="0.34"></path><path d="M1330 16H1380C1408 16 1430 38 1430 66H1380C1352 66 1330 44 1330 16Z " transform="matrix(-0.00417480768948117,0.23917457234617615,-0.23917457234617615,-0.00417480768948117,1395.5673920776771,-288.88974272245434)" filter="url(#llleaves-blur-3)" opacity="0.37"></path><path d="M133 7H183C211 7 233 29 233 57H183C155 57 133 35 133 7Z " transform="matrix(-0.1615324546263652,0.23948171237710433,-0.23948171237710433,-0.1615324546263652,220.22385399269217,-6.656114816966408)" filter="url(#llleaves-blur-3)" opacity="0.44"></path><path d="M515 396H565C593 396 615 418 615 446H565C537 446 515 424 515 396Z " transform="matrix(0.07927820089427173,0.1867677371350207,-0.1867677371350207,0.07927820089427173,598.8370338285802,282.1001059422249)" filter="url(#llleaves-blur-3)" opacity="0.31"></path><path d="M553 566H603C631 566 653 588 653 616H603C575 616 553 594 553 566Z " transform="matrix(0.0790614743593546,0.1862571614149994,-0.1862571614149994,0.0790614743593546,665.4039133575739,431.9616003203768)" filter="url(#llleaves-blur-3)" opacity="0.31"></path><path d="M558 98H608C636 98 658 120 658 148H608C580 148 558 126 558 98Z " transform="matrix(0.08406069701798712,0.1802687464979306,-0.1802687464979306,0.08406069701798712,579.0641520323093,3.0571363960457916)" filter="url(#llleaves-blur-4)" opacity="0.30"></path><path d="M531 483H581C609 483 631 505 631 533H581C553 533 531 511 531 483Z " transform="matrix(0.07927820089427173,0.1867677371350207,-0.1867677371350207,0.07927820089427173,629.8173757450187,359.2146186702629)" filter="url(#llleaves-blur-3)" opacity="0.31"></path><path d="M614 656H664C692 656 714 678 714 706H664C636 706 614 684 614 656Z " transform="matrix(0.07617755227396447,0.18854605815872214,-0.18854605815872214,0.07617755227396447,741.8179708961774,503.9285042840387)" filter="url(#llleaves-blur-3)" opacity="0.31"></path><path d="M1325 101H1375C1403 101 1425 123 1425 151H1375C1347 151 1325 129 1325 101Z " transform="matrix(0.02005181931590899,0.22919334354635998,-0.22919334354635998,0.02005181931590899,1376.3071097274665,-191.66737661004953)" filter="url(#llleaves-blur-3)" opacity="0.35"></path><path d="M179 82H229C257 82 279 104 279 132H229C201 132 179 110 179 82Z " transform="matrix(-0.12149626372185932,0.24910425624645935,-0.24910425624645935,-0.12149626372185932,283.476799810677,62.955225537799755)" filter="url(#llleaves-blur-3)" opacity="0.42"></path><path d="M642 582H692C720 582 742 604 742 632H692C664 632 642 610 642 582Z " transform="matrix(0.07338280915262547,0.19116875366001676,-0.19116875366001676,0.07338280915262547,757.2585295380134,430.16785731162474)" filter="url(#llleaves-blur-3)" opacity="0.31"></path><path d="M794 16H844C872 16 894 38 894 66H844C816 66 794 44 794 16Z " transform="matrix(0.052359843635656496,0.21000386253680908,-0.21000386253680908,0.052359843635656496,808.4184503355151,-138.39001357012876)" filter="url(#llleaves-blur-3)" opacity="0.33"></path><path d="M359 14H409C437 14 459 36 459 64H409C381 64 359 42 359 14Z " transform="matrix(0.048993094072223235,0.21221240498036908,-0.21221240498036908,0.048993094072223235,397.2381083186951,-49.705604305787645)" filter="url(#llleaves-blur-3)" opacity="0.33"></path><path d="M155 292H205C233 292 255 314 255 342H205C177 342 155 320 155 292Z " transform="matrix(-0.1719957925981693,0.23673189932922997,-0.23673189932922997,-0.1719957925981693,315.3031495699906,322.99262689112754)" filter="url(#llleaves-blur-3)" opacity="0.45"></path><path d="M-15 677H35C63 677 85 699 85 727H35C7 727 -15 705 -15 677Z " transform="matrix(-0.3562043907641711,0.05641723307232571,-0.05641723307232571,-0.3562043907641711,87.07205129351864,950.0808791589166)" filter="url(#llleaves-blur-2)" opacity="0.55"></path><path d="M709 270H759C787 270 809 292 809 320H759C731 320 709 298 709 270Z " transform="matrix(0.06804853664528114,0.19762730033514725,-0.19762730033514725,0.06804853664528114,765.6512142851001,124.9265607352653)" filter="url(#llleaves-blur-3)" opacity="0.32"></path><path d="M259 501H309C337 501 359 523 359 551H309C281 551 259 529 259 501Z " transform="matrix(-0.030291658600921242,0.24670576152383905,-0.24670576152383905,-0.030291658600921242,448.127353069224,465.7013321132183)" filter="url(#llleaves-blur-3)" opacity="0.38"></path><path d="M965 321H1015C1043 321 1065 343 1065 371H1015C987 371 965 349 965 321Z " transform="matrix(0.008181630189692228,0.23429123437917476,-0.23429123437917476,0.008181630189692228,1087.760412452657,105.36355305950408)" filter="url(#llleaves-blur-3)" opacity="0.36"></path><path d="M272 586H322C350 586 372 608 372 636H322C294 636 272 614 272 586Z " transform="matrix(-0.030291658600921242,0.24670576152383905,-0.24670576152383905,-0.030291658600921242,482.4911343605623,550.0689481944867)" filter="url(#llleaves-blur-3)" opacity="0.38"></path><path d="M116 615H166C194 615 216 637 216 665H166C138 665 116 643 116 615Z " transform="matrix(-0.21213231219852882,0.21966943981606177,-0.21966943981606177,-0.21213231219852882,341.8024053072353,739.2995527975922)" filter="url(#llleaves-blur-2)" opacity="0.47"></path><path d="M521 646H571C599 646 621 668 621 696H571C543 696 521 674 521 646Z " transform="matrix(0.07927820089427173,0.1867677371350207,-0.1867677371350207,0.07927820089427173,651.0532989069698,511.15994929584684)" filter="url(#llleaves-blur-3)" opacity="0.31"></path><path d="M1047 291H1097C1125 291 1147 313 1147 341H1097C1069 341 1047 319 1047 291Z " transform="matrix(-0.004166067689016898,0.2386738580549252,-0.2386738580549252,-0.004166067689016898,1176.991115400208,55.49125510347642)" filter="url(#llleaves-blur-3)" opacity="0.36"></path><path d="M125 734H175C203 734 225 756 225 784H175C147 784 125 762 125 734Z " transform="matrix(-0.21213231219852882,0.21966943981606177,-0.21966943981606177,-0.21213231219852882,378.85225945513344,881.5662729908724)" filter="url(#llleaves-blur-2)" opacity="0.47"></path><path d="M525 198H575C603 198 625 220 625 248H575C547 248 525 226 525 198Z " transform="matrix(0.07927820089427173,0.1867677371350207,-0.1867677371350207,0.07927820089427173,571.0642398669033,97.9295123479405)" filter="url(#llleaves-blur-3)" opacity="0.31"></path><path d="M928 645H978C1006 645 1028 667 1028 695H978C950 695 928 673 928 645Z " transform="matrix(0.012151917030286388,0.23187238987282627,-0.23187238987282627,0.012151917030286388,1121.4699263591735,435.08701829408403)" filter="url(#llleaves-blur-3)" opacity="0.35"></path><path d="M290 189H340C368 189 390 211 390 239H340C312 239 290 217 290 189Z " transform="matrix(-0.00418230361288122,0.23960401351015212,-0.23960401351015212,-0.00418230361288122,392.69724211955213,133.42964837970487)" filter="url(#llleaves-blur-3)" opacity="0.37"></path><path d="M68 555H118C146 555 168 577 168 605H118C90 605 68 583 68 555Z " transform="matrix(-0.29346319161275114,0.1560371468259797,-0.1560371468259797,-0.29346319161275114,243.13020176937283,731.7962678099302)" filter="url(#llleaves-blur-2)" opacity="0.51"></path><path d="M305 739H355C383 739 405 761 405 789H355C327 789 305 767 305 739Z " transform="matrix(-0.00418230361288122,0.23960401351015212,-0.23960401351015212,-0.00418230361288122,539.5421841043292,682.1358551641373)" filter="url(#llleaves-blur-3)" opacity="0.37"></path><path d="M283 17H333C361 17 383 39 383 67H333C305 67 283 45 283 17Z " transform="matrix(0.012214688879617753,0.2330701481100595,-0.2330701481100595,0.012214688879617753,338.7214548237098,-36.12537625359376)" filter="url(#llleaves-blur-3)" opacity="0.36"></path><path d="M1040 408H1090C1118 408 1140 430 1140 458H1090C1062 458 1040 436 1040 408Z " transform="matrix(1.4557391154985366e-17,0.2377402393101552,-0.2377402393101552,1.4557391154985366e-17,1192.9415236212972,173.86313915193085)" filter="url(#llleaves-blur-3)" opacity="0.36"></path><path d="M1311 734H1361C1389 734 1411 756 1411 784H1361C1333 784 1311 762 1311 734Z " transform="matrix(0.023838372607791956,0.22680696498608913,-0.22680696498608913,0.023838372607791956,1500.7024613052367,432.2223958446186)" filter="url(#llleaves-blur-3)" opacity="0.35"></path><path d="M1246 24H1296C1324 24 1346 46 1346 74H1296C1268 74 1246 52 1246 24Z " transform="matrix(-0.025798038924495354,0.24545194453186958,-0.24545194453186958,-0.025798038924495354,1341.4614037282076,-267.8416162060027)" filter="url(#llleaves-blur-3)" opacity="0.38"></path><path d="M1027 112H1077C1105 112 1127 134 1127 162H1077C1049 162 1027 140 1027 112Z " transform="matrix(-0.008390652214396253,0.2402768420203094,-0.2402768420203094,-0.008390652214396253,1118.9546597916872,-120.62863950250096)" filter="url(#llleaves-blur-3)" opacity="0.37"></path><path d="M874 309H924C952 309 974 331 974 359H924C896 359 874 337 874 309Z " transform="matrix(0.027642028167059948,0.22512625336436778,-0.22512625336436778,0.027642028167059948,973.6509345973353,116.75090448352617)" filter="url(#llleaves-blur-3)" opacity="0.35"></path><path d="M350 514H400C428 514 450 536 450 564H400C372 564 350 542 350 514Z " transform="matrix(0.031266874050575495,0.222475368933065,-0.222475368933065,0.031266874050575495,507.4074742346919,433.1570073135138)" filter="url(#llleaves-blur-3)" opacity="0.34"></path><path d="M137 505H187C215 505 237 527 237 555H187C159 555 137 533 137 505Z " transform="matrix(-0.1719957925981693,0.23673189932922997,-0.23673189932922997,-0.1719957925981693,344.6311198603496,576.8889049024638)" filter="url(#llleaves-blur-3)" opacity="0.45"></path><path d="M-11 226H39C67 226 89 248 89 276H39C11 276 -11 254 -11 226Z " transform="matrix(-0.3562043907641711,0.05641723307232571,-0.05641723307232571,-0.3562043907641711,67.05269674095643,338.20702999198625)" filter="url(#llleaves-blur-2)" opacity="0.55"></path><path d="M209 166H259C287 166 309 188 309 216H259C231 216 209 194 209 166Z " transform="matrix(-0.09641341298482184,0.25116552785656676,-0.25116552785656676,-0.09641341298482184,331.9436897836731,144.36309016525018)" filter="url(#llleaves-blur-3)" opacity="0.41"></path><path d="M1069 20H1119C1147 20 1169 42 1169 70H1119C1091 70 1069 48 1069 20Z " transform="matrix(-0.025805985009823635,0.2455275464836672,-0.2455275464836672,-0.025805985009823635,1158.9256368177578,-228.58405518978157)" filter="url(#llleaves-blur-3)" opacity="0.38"></path><path d="M656 732H706C734 732 756 754 756 782H706C678 782 656 760 656 732Z " transform="matrix(0.07338280915262547,0.19116875366001676,-0.19116875366001676,0.07338280915262547,798.9064832588791,566.4840733874908)" filter="url(#llleaves-blur-3)" opacity="0.31"></path><path d="M285 417H335C363 417 385 439 385 467H335C307 467 285 445 285 417Z " transform="matrix(-0.00418230361288122,0.23960401351015212,-0.23960401351015212,-0.00418230361288122,442.3060456818025,363.58123367099256)" filter="url(#llleaves-blur-3)" opacity="0.37"></path><path d="M438 373H488C516 373 538 395 538 423H488C460 423 438 401 438 373Z " transform="matrix(0.06475935798190807,0.19930880993895728,-0.19930880993895728,0.06475935798190807,535.7223396605339,274.96307627298944)" filter="url(#llleaves-blur-3)" opacity="0.32"></path><path d="M432 649H482C510 649 532 671 532 699H482C454 699 432 677 432 649Z " transform="matrix(0.06475935798190807,0.19930880993895728,-0.19930880993895728,0.06475935798190807,585.1201273515775,534.2853463296166)" filter="url(#llleaves-blur-3)" opacity="0.32"></path><path d="M886 482H936C964 482 986 504 986 532H936C908 532 886 510 886 482Z " transform="matrix(0.027642028167059948,0.22512625336436778,-0.22512625336436778,0.027642028167059948,1024.2660720913664,282.26731857025237)" filter="url(#llleaves-blur-3)" opacity="0.35"></path><path d="M379 165H429C457 165 479 187 479 215H429C401 215 379 193 379 165Z " transform="matrix(0.04545935932584905,0.21386947064198947,-0.21386947064198947,0.04545935932584905,450.13313427118874,89.6127188226752)" filter="url(#llleaves-blur-3)" opacity="0.33"></path><path d="M-14 154H36C64 154 86 176 86 204H36C8 204 -14 182 -14 154Z " transform="matrix(-0.3562043907641711,0.05641723307232571,-0.05641723307232571,-0.3562043907641711,58.92204278745646,240.72956555618288)" filter="url(#llleaves-blur-2)" opacity="0.55"></path><path d="M387 726H437C465 726 487 748 487 776H437C409 776 387 754 387 726Z " transform="matrix(0.04545935932584905,0.21386947064198947,-0.21386947064198947,0.04545935932584905,577.7502324267382,623.399062475738)" filter="url(#llleaves-blur-3)" opacity="0.33"></path><path d="M820 729H870C898 729 920 751 920 779H870C842 779 820 757 820 729Z " transform="matrix(0.042117577291598395,0.21667615139843235,-0.21667615139843235,0.042117577291598395,996.7315259107274,533.7350950054986)" filter="url(#llleaves-blur-3)" opacity="0.34"></path><path d="M157 367H207C235 367 257 389 257 417H207C179 417 157 395 157 367Z " transform="matrix(-0.1719957925981693,0.23673189932922997,-0.23673189932922997,-0.1719957925981693,335.4020336048792,410.41884753733177)" filter="url(#llleaves-blur-3)" opacity="0.45"></path><path d="M1329 381H1379C1407 381 1429 403 1429 431H1379C1351 431 1329 409 1329 381Z " transform="matrix(0.03127403036363773,0.2225262887463519,-0.2225262887463519,0.03127403036363773,1426.2187853595624,86.43899149114378)" filter="url(#llleaves-blur-3)" opacity="0.34"></path><path d="M455 558H505C533 558 555 580 555 608H505C477 608 455 586 455 558Z " transform="matrix(0.07061170785791139,0.194004072888738,-0.194004072888738,0.07061170785791139,582.445462025889,443.86131751002495)" filter="url(#llleaves-blur-3)" opacity="0.31"></path><path d="M322 102H372C400 102 422 124 422 152H372C344 152 322 130 322 102Z " transform="matrix(0.02383053596087956,0.22673240427126556,-0.22673240427126556,0.02383053596087956,391.93005596500353,39.629067544057506)" filter="url(#llleaves-blur-3)" opacity="0.35"></path><path d="M869 574H919C947 574 969 596 969 624H919C891 624 869 602 869 574Z " transform="matrix(0.027642028167059948,0.22512625336436778,-0.22512625336436778,0.027642028167059948,1028.4476018797282,375.5513982860771)" filter="url(#llleaves-blur-3)" opacity="0.35"></path><path d="M219 732H269C297 732 319 754 319 782H269C241 782 219 760 219 732Z " transform="matrix(-0.06250647088255841,0.25069976163837865,-0.25069976163837865,-0.06250647088255841,475.59396022766083,736.8791625773729)" filter="url(#llleaves-blur-3)" opacity="0.39"></path><path d="M129 142H179C207 142 229 164 229 192H179C151 192 129 170 129 142Z " transform="matrix(-0.16716985541606577,0.23874329579982195,-0.23874329579982195,-0.16716985541606577,248.79353451804604,152.18231590631484)" filter="url(#llleaves-blur-3)" opacity="0.45"></path><path d="M-16 445H34C62 445 84 467 84 495H34C6 495 -16 473 -16 445Z " transform="matrix(-0.3562043907641711,0.05641723307232571,-0.05641723307232571,-0.3562043907641711,72.62704882997491,635.4978777347013)" filter="url(#llleaves-blur-2)" opacity="0.55"></path><path d="M806 262H856C884 262 906 284 906 312H856C828 312 806 290 806 262Z " transform="matrix(0.04895341618753481,0.21204054118009852,-0.21204054118009852,0.04895341618753481,874.9515110621585,91.44366630401316)" filter="url(#llleaves-blur-3)" opacity="0.33"></path><path d="M864 388H914C942 388 964 410 964 438H914C886 438 864 416 864 388Z " transform="matrix(0.03501396175451519,0.22106945406234424,-0.22106945406234424,0.03501396175451519,973.2989234841212,196.48175278240262)" filter="url(#llleaves-blur-3)" opacity="0.34"></path><path d="M507 290H557C585 290 607 312 607 340H557C529 340 507 318 507 290Z " transform="matrix(0.07651281720301868,0.1893758679770358,-0.1893758679770358,0.07651281720301868,574.0357592306849,185.41610411784018)" filter="url(#llleaves-blur-3)" opacity="0.31"></path><path d="M54 15H104C132 15 154 37 154 65H104C76 65 54 43 54 15Z " transform="matrix(-0.2890129563070078,0.16020249766809808,-0.16020249766809808,-0.2890129563070078,140.46544736265272,34.89945849479811)" filter="url(#llleaves-blur-2)" opacity="0.51"></path><path d="M251 98H301C329 98 351 120 351 148H301C273 148 251 126 251 98Z " transform="matrix(-0.021375623094125995,0.24432448996997322,-0.24432448996997322,-0.021375623094125995,337.48597481763863,52.087530159615554)" filter="url(#llleaves-blur-3)" opacity="0.37"></path><path d="M443 17H493C521 17 543 39 543 67H493C465 67 443 45 443 17Z " transform="matrix(0.07905904843749088,0.1862514463012375,-0.1862514463012375,0.07905904843749088,461.846449864969,-53.1424430608847)" filter="url(#llleaves-blur-3)" opacity="0.31"></path><path d="M1169 547H1219C1247 547 1269 569 1269 597H1219C1191 597 1169 575 1169 547Z " transform="matrix(1.4537510715412747e-17,0.237415567093048,-0.237415567093048,1.4537510715412747e-17,1354.8017043772234,282.59042371357447)" filter="url(#llleaves-blur-3)" opacity="0.36"></path><path d="M565 733H615C643 733 665 755 665 783H615C587 783 565 761 565 733Z " transform="matrix(0.0790614743593546,0.1862571614149994,-0.1862571614149994,0.0790614743593546,707.5601216215664,583.5232481653845)" filter="url(#llleaves-blur-3)" opacity="0.31"></path><path d="M702 17H752C780 17 802 39 802 67H752C724 67 702 45 702 17Z " transform="matrix(0.07356546446962792,0.19164458702894802,-0.19164458702894802,0.07356546446962792,704.7278433740556,-105.20647895349327)" filter="url(#llleaves-blur-3)" opacity="0.31"></path><path d="M579 337H629C657 337 679 359 679 387H629C601 387 579 365 579 337Z " transform="matrix(0.07913032666922805,0.18641936729210717,-0.18641936729210717,0.07913032666922805,646.7108354847984,216.09703971900404)" filter="url(#llleaves-blur-3)" opacity="0.31"></path><path d="M762 188H812C840 188 862 210 862 238H812C784 238 762 216 762 188Z " transform="matrix(0.05553462392251046,0.2072580380580391,-0.2072580380580391,0.05553462392251046,811.0518474812839,32.87759820137751)" filter="url(#llleaves-blur-3)" opacity="0.33"></path><path d="M477 732H527C555 732 577 754 577 782H527C499 782 477 760 477 732Z " transform="matrix(0.07061170785791139,0.194004072888738,-0.194004072888738,0.07061170785791139,636.6487131356554,601.3067907391962)" filter="url(#llleaves-blur-3)" opacity="0.31"></path><path d="M1089 727H1139C1167 727 1189 749 1189 777H1139C1111 777 1089 755 1089 727Z " transform="matrix(-0.004174243911637353,0.23914227353513554,-0.23914227353513554,-0.004174243911637353,1323.5894535137768,482.7559818650319)" filter="url(#llleaves-blur-3)" opacity="0.37"></path><path d="M599 171H649C677 171 699 193 699 221H649C621 221 599 199 599 171Z " transform="matrix(0.07913032666922805,0.18641936729210717,-0.18641936729210717,0.07913032666922805,634.182613980924,59.50428660025375)" filter="url(#llleaves-blur-3)" opacity="0.31"></path><path d="M1125 105H1175C1203 105 1225 127 1225 155H1175C1147 155 1125 133 1125 105Z " transform="matrix(-0.01694909552495326,0.2423833584554861,-0.2423833584554861,-0.01694909552495326,1226.4250238410334,-152.5970637669522)" filter="url(#llleaves-blur-3)" opacity="0.37"></path><path d="M521 19H571C599 19 621 41 621 69H571C543 69 521 47 521 19Z " transform="matrix(0.0890096910550048,0.17469135475632022,-0.17469135475632022,0.0890096910550048,527.8618860168704,-59.66518997227905)" filter="url(#llleaves-blur-4)" opacity="0.30"></path><path d="M671 351H721C749 351 771 373 771 401H721C693 401 671 379 671 351Z " transform="matrix(0.07069037267941818,0.19422020270953333,-0.19422020270953333,0.07069037267941818,743.059037516924,209.38765371896525)" filter="url(#llleaves-blur-3)" opacity="0.31"></path><path d="M1231 121H1281C1309 121 1331 143 1331 171H1281C1253 171 1231 149 1231 121Z " transform="matrix(-0.004164373079799553,0.23857677395788437,-0.23857677395788437,-0.004164373079799553,1321.1667709130743,-159.00884897039913)" filter="url(#llleaves-blur-3)" opacity="0.36"></path><path d="M223 249H273C301 249 323 271 323 299H273C245 299 223 277 223 249Z " transform="matrix(-0.06250647088255841,0.25069976163837865,-0.25069976163837865,-0.06250647088255841,358.75600123985424,222.68573809454364)" filter="url(#llleaves-blur-3)" opacity="0.39"></path><path d="M607 419H657C685 419 707 441 707 469H657C629 469 607 447 607 419Z " transform="matrix(0.07617755227396447,0.18854605815872214,-0.18854605815872214,0.07617755227396447,690.6657979784779,286.3024065800793)" filter="url(#llleaves-blur-3)" opacity="0.31"></path><path d="M610 259H660C688 259 710 281 710 309H660C632 309 610 287 610 259Z " transform="matrix(0.07617755227396447,0.18854605815872214,-0.18854605815872214,0.07617755227396447,663.2698960162605,137.92517676943746)" filter="url(#llleaves-blur-3)" opacity="0.31"></path><path d="M-16 365H34C62 365 84 387 84 415H34C6 415 -16 393 -16 365Z " transform="matrix(-0.3562043907641711,0.05641723307232571,-0.05641723307232571,-0.3562043907641711,68.11367018418883,527.0015264735677)" filter="url(#llleaves-blur-2)" opacity="0.55"></path></g><g fill="none" stroke-width="3" stroke="#4c5dab"><path d="M366 598H416C444 598 466 620 466 648H416C388 648 366 626 366 598Z " transform="matrix(0.04545935932584905,0.21386947064198947,-0.21386947064198947,0.04545935932584905,530.3295867304063,505.70911935292844)" filter="url(#llleaves-blur-3)" opacity="0.33"></path><path d="M47 396H97C125 396 147 418 147 446H97C69 446 47 424 47 396Z " transform="matrix(-0.29346319161275114,0.1560371468259797,-0.1560371468259797,-0.29346319161275114,191.1575684001743,529.4124004268482)" filter="url(#llleaves-blur-2)" opacity="0.51"></path><path d="M195 653H245C273 653 295 675 295 703H245C217 703 195 681 195 653Z " transform="matrix(-0.09641341298482184,0.25116552785656676,-0.25116552785656676,-0.09641341298482184,438.9115140680336,681.8327396788503)" filter="url(#llleaves-blur-3)" opacity="0.41"></path><path d="M9 744H59C87 744 109 766 109 794H59C31 794 9 772 9 744Z " transform="matrix(-0.32752557076528593,0.11277609807294639,-0.11277609807294639,-0.32752557076528593,165.04882809324766,1014.2133741322011)" filter="url(#llleaves-blur-2)" opacity="0.53"></path><path d="M233 349H283C311 349 333 371 333 399H283C255 399 233 377 233 349Z " transform="matrix(-0.06250647088255841,0.25069976163837865,-0.25069976163837865,-0.06250647088255841,394.45104211251765,326.4293875664157)" filter="url(#llleaves-blur-3)" opacity="0.39"></path><path d="M354 247H404C432 247 454 269 454 297H404C376 297 354 275 354 247Z " transform="matrix(0.031266874050575495,0.222475368933065,-0.222475368933065,0.031266874050575495,451.88148323336117,173.6153612092852)" filter="url(#llleaves-blur-3)" opacity="0.34"></path><path d="M71 257H121C149 257 171 279 171 307H121C93 307 71 285 71 257Z " transform="matrix(-0.2544928917619303,0.19177414930957454,-0.19177414930957454,-0.2544928917619303,205.87395000849358,330.56232341040584)" filter="url(#llleaves-blur-2)" opacity="0.49"></path><path d="M1232 640H1282C1310 640 1332 662 1332 690H1282C1254 690 1232 668 1232 640Z " transform="matrix(0.012227911253019004,0.23332244602426497,-0.23332244602426497,0.012227911253019004,1421.483244379766,357.74906321363466)" filter="url(#llleaves-blur-3)" opacity="0.36"></path><path d="M1195 730H1245C1273 730 1295 752 1295 780H1245C1217 780 1195 758 1195 730Z " transform="matrix(0.004114858578228611,0.23574009006272023,-0.23574009006272023,0.004114858578228611,1417.8607690674592,458.3968696453507)" filter="url(#llleaves-blur-3)" opacity="0.36"></path><path d="M287 290H337C365 290 387 312 387 340H337C309 340 287 318 287 290Z " transform="matrix(-0.00418230361288122,0.23960401351015212,-0.23960401351015212,-0.00418230361288122,413.88470057323894,235.57087308513633)" filter="url(#llleaves-blur-3)" opacity="0.37"></path><path d="M400 86H450C478 86 500 108 500 136H450C422 136 400 114 400 86Z " transform="matrix(0.0677945817558471,0.19688976178281398,-0.19688976178281398,0.0677945817558471,441.34720176776113,14.874408622834665)" filter="url(#llleaves-blur-3)" opacity="0.32"></path><path d="M740 729H790C818 729 840 751 840 779H790C762 779 740 757 740 729Z " transform="matrix(0.06188696358555467,0.20242313689384414,-0.20242313689384414,0.06188696358555467,893.7363439853701,547.422951310355)" filter="url(#llleaves-blur-3)" opacity="0.32"></path><path d="M-14 78H36C64 78 86 100 86 128H36C8 128 -14 106 -14 78Z " transform="matrix(-0.35467658834717847,0.06253905195123709,-0.06253905195123709,-0.35467658834717847,55.20987953147584,137.28028272951485)" filter="url(#llleaves-blur-2)" opacity="0.55"></path><path d="M55 477H105C133 477 155 499 155 527H105C77 527 55 505 55 477Z " transform="matrix(-0.29346319161275114,0.1560371468259797,-0.1560371468259797,-0.29346319161275114,214.14428282598067,632.9346217728732)" filter="url(#llleaves-blur-2)" opacity="0.51"></path><path d="M345 346H395C423 346 445 368 445 396H395C367 396 345 374 345 346Z " transform="matrix(0.031266874050575495,0.222475368933065,-0.222475368933065,0.031266874050575495,465.1879466241898,271.52221899867584)" filter="url(#llleaves-blur-3)" opacity="0.34"></path><path d="M210 12H260C288 12 310 34 310 62H260C232 62 210 40 210 12Z " transform="matrix(-0.07723555826497498,0.2526261279910779,-0.2526261279910779,-0.07723555826497498,289.4284118845634,-25.825077621876176)" filter="url(#llleaves-blur-3)" opacity="0.40"></path><path d="M706 443H756C784 443 806 465 806 493H756C728 493 706 471 706 443Z " transform="matrix(0.06804853664528114,0.19762730033514725,-0.19762730033514725,0.06804853664528114,797.0448828530164,286.7470457966371)" filter="url(#llleaves-blur-3)" opacity="0.32"></path><path d="M-16 9H34C62 9 84 31 84 59H34C6 59 -16 37 -16 9Z " transform="matrix(-0.35452931379706476,0.06251308347448034,-0.06251308347448034,-0.35452931379706476,48.17944150723253,43.92855183096787)" filter="url(#llleaves-blur-2)" opacity="0.55"></path><path d="M1187 358H1237C1265 358 1287 380 1287 408H1237C1209 408 1187 386 1187 358Z " transform="matrix(1.4537510715412747e-17,0.237415567093048,-0.237415567093048,1.4537510715412747e-17,1327.9301621966374,89.31694350589959)" filter="url(#llleaves-blur-3)" opacity="0.36"></path><path d="M420 295H470C498 295 520 317 520 345H470C442 345 420 323 420 295Z " transform="matrix(0.05888179542064858,0.20534522382925535,-0.20534522382925535,0.05888179542064858,508.0360277776569,204.64557026564245)" filter="url(#llleaves-blur-3)" opacity="0.33"></path><path d="M143 216H193C221 216 243 238 243 266H193C165 266 143 244 143 216Z " transform="matrix(-0.1719957925981693,0.23673189932922997,-0.23673189932922997,-0.1719957925981693,283.2475757097911,236.76172944561742)" filter="url(#llleaves-blur-3)" opacity="0.45"></path><path d="M105 70H155C183 70 205 92 205 120H155C127 120 105 98 105 70Z " transform="matrix(-0.20661134522739713,0.22156354175796827,-0.22156354175796827,-0.20661134522739713,208.0732949772535,80.28572882411764)" filter="url(#llleaves-blur-2)" opacity="0.46"></path><path d="M62 184H112C140 184 162 206 162 234H112C84 234 62 212 62 184Z " transform="matrix(-0.29346319161275114,0.1560371468259797,-0.1560371468259797,-0.29346319161275114,177.4796411472579,252.85764660255526)" filter="url(#llleaves-blur-2)" opacity="0.51"></path><path d="M891 19H941C969 19 991 41 991 69H941C913 69 891 47 891 19Z " transform="matrix(0.023898219166549925,0.22737636695744354,-0.22737636695744354,0.023898219166549925,928.516335910404,-171.01268295028257)" filter="url(#llleaves-blur-3)" opacity="0.35"></path><path d="M1031 626H1081C1109 626 1131 648 1131 676H1081C1053 676 1031 654 1031 626Z " transform="matrix(1.4557391154985366e-17,0.2377402393101552,-0.2377402393101552,1.4557391154985366e-17,1235.768895790911,394.00280130572224)" filter="url(#llleaves-blur-3)" opacity="0.36"></path><path d="M1332 280H1382C1410 280 1432 302 1432 330H1382C1354 330 1332 308 1332 280Z " transform="matrix(0.03127403036363773,0.2225262887463519,-0.2225262887463519,0.03127403036363773,1406.64980810509,-12.069910308367866)" filter="url(#llleaves-blur-3)" opacity="0.34"></path><path d="M679 184H729C757 184 779 206 779 234H729C701 234 679 212 679 184Z " transform="matrix(0.07069037267941818,0.19422020270953333,-0.19422020270953333,0.07069037267941818,718.0587406829966,52.6391843347518)" filter="url(#llleaves-blur-3)" opacity="0.31"></path><path d="M796 526H846C874 526 896 548 896 576H846C818 576 796 554 796 526Z " transform="matrix(0.04895341618753481,0.21204054118009852,-0.21204054118009852,0.04895341618753481,921.41974809558,344.64036984230495)" filter="url(#llleaves-blur-3)" opacity="0.33"></path><path d="M1169 184H1219C1247 184 1269 206 1269 234H1219C1191 234 1169 212 1169 184Z " transform="matrix(1.4537510715412747e-17,0.237415567093048,-0.237415567093048,1.4537510715412747e-17,1268.619853522447,-80.40957628642553)" filter="url(#llleaves-blur-3)" opacity="0.36"></path><path d="M978 24H1028C1056 24 1078 46 1078 74H1028C1000 74 978 52 978 24Z " transform="matrix(-0.004179060338852105,0.2394182064654661,-0.2394182064654661,-0.004179060338852105,1044.0275661451478,-196.91714228989542)" filter="url(#llleaves-blur-3)" opacity="0.37"></path><path d="M1079 196H1129C1157 196 1179 218 1179 246H1129C1101 246 1079 224 1079 196Z " transform="matrix(-0.004174243911637353,0.23914227353513554,-0.23914227353513554,-0.004174243911637353,1186.5631638275036,-48.0691189166962)" filter="url(#llleaves-blur-3)" opacity="0.37"></path><path d="M991 209H1041C1069 209 1091 231 1091 259H1041C1013 259 991 237 991 209Z " transform="matrix(0.004124019057885921,0.23626489359080693,-0.23626489359080693,0.004124019057885921,1091.9928812609896,-12.916774687575327)" filter="url(#llleaves-blur-3)" opacity="0.36"></path><path d="M1105 360H1155C1183 360 1205 382 1205 410H1155C1127 410 1105 388 1105 360Z " transform="matrix(-0.004174243911637353,0.23914227353513554,-0.23914227353513554,-0.004174243911637353,1251.8910270289682,110.39775797289883)" filter="url(#llleaves-blur-3)" opacity="0.37"></path><path d="M0 605H50C78 605 100 627 100 655H50C22 655 0 633 0 605Z " transform="matrix(-0.3562043907641711,0.05641723307232571,-0.05641723307232571,-0.3562043907641711,103.35307637377376,851.5879045278114)" filter="url(#llleaves-blur-2)" opacity="0.55"></path><path d="M50 108H100C128 108 150 130 150 158H100C72 158 50 136 50 108Z " transform="matrix(-0.28974077006973037,0.16060593142454713,-0.16060593142454713,-0.28974077006973037,150.33466588643782,155.47492927681944)" filter="url(#llleaves-blur-2)" opacity="0.51"></path><path d="M1078 534H1128C1156 534 1178 556 1178 584H1128C1100 584 1078 562 1078 534Z " transform="matrix(-0.004174243911637353,0.23914227353513554,-0.23914227353513554,-0.004174243911637353,1266.3890780384677,291.5809177989724)" filter="url(#llleaves-blur-3)" opacity="0.37"></path><path d="M810 637H860C888 637 910 659 910 687H860C832 687 810 665 810 637Z " transform="matrix(0.042117577291598395,0.21667615139843235,-0.21667615139843235,0.042117577291598395,967.2184957549874,447.77667363031003)" filter="url(#llleaves-blur-3)" opacity="0.34"></path><path d="M303 663H353C381 663 403 685 403 713H353C325 713 303 691 303 663Z " transform="matrix(-0.00418230361288122,0.23960401351015212,-0.23960401351015212,-0.00418230361288122,519.3239144703316,606.2972081165785)" filter="url(#llleaves-blur-3)" opacity="0.37"></path><path d="M1327 651H1377C1405 651 1427 673 1427 701H1377C1349 701 1327 679 1327 651Z " transform="matrix(0.03127403036363773,0.2225262887463519,-0.2225262887463519,0.03127403036363773,1484.3634313818047,348.4400558704543)" filter="url(#llleaves-blur-3)" opacity="0.34"></path><path d="M1003 488H1053C1081 488 1103 510 1103 538H1053C1025 538 1003 516 1003 488Z " transform="matrix(0.004124019057885921,0.23626489359080693,-0.23626489359080693,0.004124019057885921,1169.86129834413,262.0974452721848)" filter="url(#llleaves-blur-3)" opacity="0.36"></path><path d="M1240 238H1290C1318 238 1340 260 1340 288H1290C1262 288 1240 266 1240 238Z " transform="matrix(0.012227911253019004,0.23332244602426497,-0.23332244602426497,0.012227911253019004,1335.5897977879872,-41.201896030845774)" filter="url(#llleaves-blur-3)" opacity="0.36"></path><path d="M994 726H1044C1072 726 1094 748 1094 776H1044C1016 776 994 754 994 726Z " transform="matrix(0.004124019057885921,0.23626489359080693,-0.23626489359080693,0.004124019057885921,1217.129459190263,501.24231277872525)" filter="url(#llleaves-blur-3)" opacity="0.36"></path><path d="M911 229H961C989 229 1011 251 1011 279H961C933 279 911 257 911 229Z " transform="matrix(0.020013530699067514,0.22875570265326153,-0.22875570265326153,0.020013530699067514,999.8709454721245,29.082332952652507)" filter="url(#llleaves-blur-3)" opacity="0.35"></path><path d="M610 16H660C688 16 710 38 710 66H660C632 66 610 44 610 16Z " transform="matrix(0.08666413859434591,0.17768781628714797,-0.17768781628714797,0.08666413859434591,610.0868689955048,-79.82718843188584)" filter="url(#llleaves-blur-4)" opacity="0.30"></path><path d="M1236 440H1286C1314 440 1336 462 1336 490H1286C1258 490 1236 468 1236 440Z " transform="matrix(0.012227911253019004,0.23332244602426497,-0.23332244602426497,0.012227911253019004,1378.7698435299008,159.26135568014138)" filter="url(#llleaves-blur-3)" opacity="0.36"></path><path d="M200 443H250C278 443 300 465 300 493H250C222 493 200 471 200 443Z " transform="matrix(-0.09641341298482184,0.25116552785656676,-0.25116552785656676,-0.09641341298482184,391.64882028307875,450.3300953127549)" filter="url(#llleaves-blur-3)" opacity="0.41"></path><path d="M1330 565H1380C1408 565 1430 587 1430 615H1380C1352 615 1330 593 1330 565Z " transform="matrix(0.03127403036363773,0.2225262887463519,-0.2225262887463519,0.03127403036363773,1468.1323484585275,264.462043615488)" filter="url(#llleaves-blur-3)" opacity="0.34"></path><path d="M720 546H770C798 546 820 568 820 596H770C742 596 720 574 720 546Z " transform="matrix(0.06188696358555467,0.20242313689384414,-0.20242313689384414,0.06188696358555467,837.930649205508,379.7967283843883)" filter="url(#llleaves-blur-3)" opacity="0.32"></path><path d="M933 121H983C1011 121 1033 143 1033 171H983C955 171 933 149 933 121Z " transform="matrix(0.012223138217985053,0.23323137109036682,-0.23323137109036682,0.012223138217985053,1005.0364353109143,-85.05101596165639)" filter="url(#llleaves-blur-3)" opacity="0.36"></path><path d="M1322 187H1372C1400 187 1422 209 1422 237H1372C1344 237 1322 215 1322 187Z " transform="matrix(0.03127403036363773,0.2225262887463519,-0.2225262887463519,0.03127403036363773,1376.2676035553156,-99.93616259708602)" filter="url(#llleaves-blur-3)" opacity="0.34"></path><path d="M630 500H680C708 500 730 522 730 550H680C652 550 630 528 630 500Z " transform="matrix(0.07617755227396447,0.18854605815872214,-0.18854605815872214,0.07617755227396447,727.1859449870333,356.7954655082376)" filter="url(#llleaves-blur-3)" opacity="0.31"></path><path d="M793 438H843C871 438 893 460 893 488H843C815 488 793 466 793 438Z " transform="matrix(0.04895341618753481,0.21204054118009852,-0.21204054118009852,0.04895341618753481,899.9070407202938,261.58439209034833)" filter="url(#llleaves-blur-3)" opacity="0.33"></path><path d="M1259 332H1309C1337 332 1359 354 1359 382H1309C1281 382 1259 360 1259 332Z " transform="matrix(0.016117440382298263,0.23049013581969846,-0.23049013581969846,0.016117440382298263,1370.187249027204,49.534485995534226)" filter="url(#llleaves-blur-3)" opacity="0.35"></path><path d="M1137 452H1187C1215 452 1237 474 1237 502H1187C1159 502 1137 480 1137 452Z " transform="matrix(-0.004163027227486178,0.2384996701304904,-0.2384996701304904,-0.004163027227486178,1305.70585597127,195.88665554261877)" filter="url(#llleaves-blur-3)" opacity="0.36"></path><path d="M841 91H891C919 91 941 113 941 141H891C863 141 841 119 841 91Z " transform="matrix(0.03503121845993376,0.22117840861231905,-0.22117840861231905,0.03503121845993376,885.443879751228,-85.13358341492858)" filter="url(#llleaves-blur-3)" opacity="0.34"></path><path d="M654 96H704C732 96 754 118 754 146H704C676 146 654 124 654 96Z " transform="matrix(0.07895741139316903,0.1860120044299165,-0.1860120044299165,0.07895741139316903,670.9214349152289,-19.506297897234674)" filter="url(#llleaves-blur-3)" opacity="0.31"></path><path d="M747 102H797C825 102 847 124 847 152H797C769 152 747 130 747 102Z " transform="matrix(0.06489480306448968,0.19972566703981004,-0.19972566703981004,0.06489480306448968,770.6440016716576,-40.42299661991876)" filter="url(#llleaves-blur-3)" opacity="0.32"></path><path d="M444 212H494C522 212 544 234 544 262H494C466 262 444 240 444 212Z " transform="matrix(0.06475935798190807,0.19930880993895728,-0.19930880993895728,0.06475935798190807,509.2450651124703,123.1934800484429)" filter="url(#llleaves-blur-3)" opacity="0.32"></path><path d="M1145 273H1195C1223 273 1245 295 1245 323H1195C1167 323 1145 301 1145 273Z " transform="matrix(-0.004163027227486178,0.2384996701304904,-0.2384996701304904,-0.004163027227486178,1271.047719235732,14.233476307854858)" filter="url(#llleaves-blur-3)" opacity="0.36"></path><path d="M78 331H128C156 331 178 353 178 381H128C100 381 78 359 78 331Z " transform="matrix(-0.2544928917619303,0.19177414930957454,-0.19177414930957454,-0.2544928917619303,228.8466872997356,422.05237835562167)" filter="url(#llleaves-blur-2)" opacity="0.49"></path><path d="M901 728H951C979 728 1001 750 1001 778H951C923 778 901 756 901 728Z " transform="matrix(0.020013530699067514,0.22875570265326153,-0.22875570265326153,0.020013530699067514,1104.2201764030926,520.3831381603504)" filter="url(#llleaves-blur-3)" opacity="0.35"></path><path d="M473 117H523C551 117 573 139 573 167H523C495 167 473 145 473 117Z " transform="matrix(0.07916537407727092,0.186501933811261,-0.186501933811261,0.07916537407727092,508.0797839587864,33.21800549773802)" filter="url(#llleaves-blur-3)" opacity="0.31"></path></g></svg>